<mxfile host="app.diagrams.net" modified="2023-01-22T19:03:01.913Z" agent="5.0 (X11)" etag="kWAYIs7WMJ58x4Dr1NeZ" version="20.2.8" type="github">
  <diagram name="Page-1" id="b5b7bab2-c9e2-2cf4-8b2a-24fd1a2a6d21">
    <mxGraphModel dx="2062" dy="2317" grid="1" gridSize="10" guides="1" tooltips="1" connect="1" arrows="1" fold="1" page="1" pageScale="1" pageWidth="827" pageHeight="1169" background="none" math="0" shadow="0">
      <root>
        <mxCell id="0" />
        <mxCell id="1" parent="0" />
        <mxCell id="UoRlEjGYQ4p_Dg9qFwCA-1" value="com.IT3048NameHolder.ui" style="shape=folder;fontStyle=1;tabWidth=80;tabHeight=30;tabPosition=left;html=1;boundedLbl=1;" vertex="1" parent="1">
          <mxGeometry x="120" y="200" width="440" height="340" as="geometry" />
        </mxCell>
        <mxCell id="UoRlEjGYQ4p_Dg9qFwCA-2" value="com.IT3048NameHolder.dto" style="shape=folder;fontStyle=1;tabWidth=80;tabHeight=30;tabPosition=left;html=1;boundedLbl=1;" vertex="1" parent="1">
          <mxGeometry x="120" y="570" width="440" height="340" as="geometry" />
        </mxCell>
        <mxCell id="UoRlEjGYQ4p_Dg9qFwCA-3" value="com.IT3048NameHolder.service" style="shape=folder;fontStyle=1;tabWidth=80;tabHeight=30;tabPosition=left;html=1;boundedLbl=1;" vertex="1" parent="1">
          <mxGeometry x="610" y="200" width="440" height="340" as="geometry" />
        </mxCell>
        <mxCell id="UoRlEjGYQ4p_Dg9qFwCA-4" value="com.IT3048NameHolder.dao" style="shape=folder;fontStyle=1;tabWidth=80;tabHeight=30;tabPosition=left;html=1;boundedLbl=1;" vertex="1" parent="1">
          <mxGeometry x="610" y="570" width="440" height="340" as="geometry" />
        </mxCell>
        <mxCell id="UoRlEjGYQ4p_Dg9qFwCA-6" value="MainActivity" style="swimlane;fontStyle=1;align=center;verticalAlign=top;childLayout=stackLayout;horizontal=1;startSize=26;horizontalStack=0;resizeParent=1;resizeParentMax=0;resizeLast=0;collapsible=1;marginBottom=0;" vertex="1" parent="1">
          <mxGeometry x="140" y="270" width="160" height="34" as="geometry" />
        </mxCell>
        <mxCell id="UoRlEjGYQ4p_Dg9qFwCA-8" value="" style="line;strokeWidth=1;fillColor=none;align=left;verticalAlign=middle;spacingTop=-1;spacingLeft=3;spacingRight=3;rotatable=0;labelPosition=right;points=[];portConstraint=eastwest;strokeColor=inherit;" vertex="1" parent="UoRlEjGYQ4p_Dg9qFwCA-6">
          <mxGeometry y="26" width="160" height="8" as="geometry" />
        </mxCell>
        <mxCell id="UoRlEjGYQ4p_Dg9qFwCA-10" value="ViewModel" style="swimlane;fontStyle=1;align=center;verticalAlign=top;childLayout=stackLayout;horizontal=1;startSize=26;horizontalStack=0;resizeParent=1;resizeParentMax=0;resizeLast=0;collapsible=1;marginBottom=0;" vertex="1" parent="1">
          <mxGeometry x="380" y="270" width="160" height="34" as="geometry" />
        </mxCell>
        <mxCell id="UoRlEjGYQ4p_Dg9qFwCA-12" value="" style="line;strokeWidth=1;fillColor=none;align=left;verticalAlign=middle;spacingTop=-1;spacingLeft=3;spacingRight=3;rotatable=0;labelPosition=right;points=[];portConstraint=eastwest;strokeColor=inherit;" vertex="1" parent="UoRlEjGYQ4p_Dg9qFwCA-10">
          <mxGeometry y="26" width="160" height="8" as="geometry" />
        </mxCell>
        <mxCell id="UoRlEjGYQ4p_Dg9qFwCA-14" value="ApplicationViewModel" style="swimlane;fontStyle=1;align=center;verticalAlign=top;childLayout=stackLayout;horizontal=1;startSize=26;horizontalStack=0;resizeParent=1;resizeParentMax=0;resizeLast=0;collapsible=1;marginBottom=0;" vertex="1" parent="1">
          <mxGeometry x="380" y="420" width="160" height="34" as="geometry" />
        </mxCell>
        <mxCell id="UoRlEjGYQ4p_Dg9qFwCA-16" value="" style="line;strokeWidth=1;fillColor=none;align=left;verticalAlign=middle;spacingTop=-1;spacingLeft=3;spacingRight=3;rotatable=0;labelPosition=right;points=[];portConstraint=eastwest;strokeColor=inherit;" vertex="1" parent="UoRlEjGYQ4p_Dg9qFwCA-14">
          <mxGeometry y="26" width="160" height="8" as="geometry" />
        </mxCell>
        <mxCell id="UoRlEjGYQ4p_Dg9qFwCA-18" value="com.IT3048NameHolder" style="shape=folder;fontStyle=1;spacingTop=10;tabWidth=40;tabHeight=14;tabPosition=left;html=1;" vertex="1" parent="1">
          <mxGeometry x="210" y="-70" width="349" height="240" as="geometry" />
        </mxCell>
        <mxCell id="UoRlEjGYQ4p_Dg9qFwCA-19" value="AppModule" style="swimlane;fontStyle=1;align=center;verticalAlign=top;childLayout=stackLayout;horizontal=1;startSize=26;horizontalStack=0;resizeParent=1;resizeParentMax=0;resizeLast=0;collapsible=1;marginBottom=0;" vertex="1" parent="1">
          <mxGeometry x="380" y="90" width="130" height="34" as="geometry" />
        </mxCell>
        <mxCell id="UoRlEjGYQ4p_Dg9qFwCA-21" value="" style="line;strokeWidth=1;fillColor=none;align=left;verticalAlign=middle;spacingTop=-1;spacingLeft=3;spacingRight=3;rotatable=0;labelPosition=right;points=[];portConstraint=eastwest;strokeColor=inherit;" vertex="1" parent="UoRlEjGYQ4p_Dg9qFwCA-19">
          <mxGeometry y="26" width="130" height="8" as="geometry" />
        </mxCell>
        <mxCell id="UoRlEjGYQ4p_Dg9qFwCA-23" value="Use" style="endArrow=open;endSize=12;dashed=1;html=1;rounded=0;exitX=1;exitY=0.5;exitDx=0;exitDy=0;entryX=0;entryY=0.5;entryDx=0;entryDy=0;" edge="1" parent="1" source="UoRlEjGYQ4p_Dg9qFwCA-6" target="UoRlEjGYQ4p_Dg9qFwCA-10">
          <mxGeometry width="160" relative="1" as="geometry">
            <mxPoint x="750" y="410" as="sourcePoint" />
            <mxPoint x="910" y="410" as="targetPoint" />
          </mxGeometry>
        </mxCell>
        <mxCell id="UoRlEjGYQ4p_Dg9qFwCA-24" value="Use" style="endArrow=open;endSize=12;dashed=1;html=1;rounded=0;exitX=1;exitY=0.5;exitDx=0;exitDy=0;entryX=0;entryY=0.5;entryDx=0;entryDy=0;" edge="1" parent="1" source="UoRlEjGYQ4p_Dg9qFwCA-6" target="UoRlEjGYQ4p_Dg9qFwCA-14">
          <mxGeometry width="160" relative="1" as="geometry">
            <mxPoint x="750" y="410" as="sourcePoint" />
            <mxPoint x="910" y="410" as="targetPoint" />
          </mxGeometry>
        </mxCell>
        <mxCell id="UoRlEjGYQ4p_Dg9qFwCA-25" value="FoodData" style="swimlane;fontStyle=1;align=center;verticalAlign=top;childLayout=stackLayout;horizontal=1;startSize=26;horizontalStack=0;resizeParent=1;resizeParentMax=0;resizeLast=0;collapsible=1;marginBottom=0;" vertex="1" parent="1">
          <mxGeometry x="130" y="610" width="160" height="98" as="geometry" />
        </mxCell>
        <mxCell id="UoRlEjGYQ4p_Dg9qFwCA-26" value="FoodId: int&#xa;FoodName: String&#xa;Calories: Int&#xa;" style="text;strokeColor=none;fillColor=none;align=left;verticalAlign=top;spacingLeft=4;spacingRight=4;overflow=hidden;rotatable=0;points=[[0,0.5],[1,0.5]];portConstraint=eastwest;" vertex="1" parent="UoRlEjGYQ4p_Dg9qFwCA-25">
          <mxGeometry y="26" width="160" height="64" as="geometry" />
        </mxCell>
        <mxCell id="UoRlEjGYQ4p_Dg9qFwCA-27" value="" style="line;strokeWidth=1;fillColor=none;align=left;verticalAlign=middle;spacingTop=-1;spacingLeft=3;spacingRight=3;rotatable=0;labelPosition=right;points=[];portConstraint=eastwest;strokeColor=inherit;" vertex="1" parent="UoRlEjGYQ4p_Dg9qFwCA-25">
          <mxGeometry y="90" width="160" height="8" as="geometry" />
        </mxCell>
        <mxCell id="UoRlEjGYQ4p_Dg9qFwCA-29" value="Food    " style="swimlane;fontStyle=1;align=center;verticalAlign=top;childLayout=stackLayout;horizontal=1;startSize=26;horizontalStack=0;resizeParent=1;resizeParentMax=0;resizeLast=0;collapsible=1;marginBottom=0;" vertex="1" parent="1">
          <mxGeometry x="370" y="610" width="170" height="118" as="geometry" />
        </mxCell>
        <mxCell id="UoRlEjGYQ4p_Dg9qFwCA-30" value="dateTime: int&#xa;foodID: int&#xa;" style="text;strokeColor=none;fillColor=none;align=left;verticalAlign=top;spacingLeft=4;spacingRight=4;overflow=hidden;rotatable=0;points=[[0,0.5],[1,0.5]];portConstraint=eastwest;" vertex="1" parent="UoRlEjGYQ4p_Dg9qFwCA-29">
          <mxGeometry y="26" width="170" height="84" as="geometry" />
        </mxCell>
        <mxCell id="UoRlEjGYQ4p_Dg9qFwCA-31" value="" style="line;strokeWidth=1;fillColor=none;align=left;verticalAlign=middle;spacingTop=-1;spacingLeft=3;spacingRight=3;rotatable=0;labelPosition=right;points=[];portConstraint=eastwest;strokeColor=inherit;" vertex="1" parent="UoRlEjGYQ4p_Dg9qFwCA-29">
          <mxGeometry y="110" width="170" height="8" as="geometry" />
        </mxCell>
        <mxCell id="UoRlEjGYQ4p_Dg9qFwCA-33" value="" style="endArrow=none;html=1;edgeStyle=orthogonalEdgeStyle;rounded=0;exitX=1;exitY=0.5;exitDx=0;exitDy=0;entryX=-0.018;entryY=0.381;entryDx=0;entryDy=0;entryPerimeter=0;" edge="1" parent="1" source="UoRlEjGYQ4p_Dg9qFwCA-26" target="UoRlEjGYQ4p_Dg9qFwCA-30">
          <mxGeometry relative="1" as="geometry">
            <mxPoint x="750" y="410" as="sourcePoint" />
            <mxPoint x="910" y="410" as="targetPoint" />
          </mxGeometry>
        </mxCell>
        <mxCell id="UoRlEjGYQ4p_Dg9qFwCA-34" value="parent" style="edgeLabel;resizable=0;html=1;align=left;verticalAlign=bottom;" connectable="0" vertex="1" parent="UoRlEjGYQ4p_Dg9qFwCA-33">
          <mxGeometry x="-1" relative="1" as="geometry" />
        </mxCell>
        <mxCell id="UoRlEjGYQ4p_Dg9qFwCA-35" value="child" style="edgeLabel;resizable=0;html=1;align=right;verticalAlign=bottom;" connectable="0" vertex="1" parent="UoRlEjGYQ4p_Dg9qFwCA-33">
          <mxGeometry x="1" relative="1" as="geometry" />
        </mxCell>
      </root>
    </mxGraphModel>
  </diagram>
</mxfile>
